<mxfile host="app.diagrams.net" modified="2022-03-13T23:53:51.700Z" agent="5.0 (Windows NT 10.0; Win64; x64) AppleWebKit/537.36 (KHTML, like Gecko) Chrome/99.0.4844.51 Safari/537.36" etag="ij5-fAtyUK19_udsDgKI" version="17.1.2" type="github">
  <diagram id="C5RBs43oDa-KdzZeNtuy" name="Page-1">
    <mxGraphModel dx="1662" dy="762" grid="1" gridSize="10" guides="1" tooltips="1" connect="1" arrows="1" fold="1" page="1" pageScale="1" pageWidth="827" pageHeight="1169" math="0" shadow="0">
      <root>
        <mxCell id="WIyWlLk6GJQsqaUBKTNV-0" />
        <mxCell id="WIyWlLk6GJQsqaUBKTNV-1" parent="WIyWlLk6GJQsqaUBKTNV-0" />
        <mxCell id="ghwq6gVGDbaOMy1OxIAP-0" value="iJukebox" style="swimlane;fontStyle=1;align=center;verticalAlign=top;childLayout=stackLayout;horizontal=1;startSize=26;horizontalStack=0;resizeParent=1;resizeParentMax=0;resizeLast=0;collapsible=1;marginBottom=0;" parent="WIyWlLk6GJQsqaUBKTNV-1" vertex="1">
          <mxGeometry x="104" y="110" width="160" height="112" as="geometry" />
        </mxCell>
        <mxCell id="ghwq6gVGDbaOMy1OxIAP-1" value="JukeBox ID" style="text;strokeColor=none;fillColor=none;align=left;verticalAlign=top;spacingLeft=4;spacingRight=4;overflow=hidden;rotatable=0;points=[[0,0.5],[1,0.5]];portConstraint=eastwest;" parent="ghwq6gVGDbaOMy1OxIAP-0" vertex="1">
          <mxGeometry y="26" width="160" height="26" as="geometry" />
        </mxCell>
        <mxCell id="8XgDAi0aC2tZfyaki_x5-9" value="Speaker" style="text;strokeColor=none;fillColor=none;align=left;verticalAlign=top;spacingLeft=4;spacingRight=4;overflow=hidden;rotatable=0;points=[[0,0.5],[1,0.5]];portConstraint=eastwest;" vertex="1" parent="ghwq6gVGDbaOMy1OxIAP-0">
          <mxGeometry y="52" width="160" height="26" as="geometry" />
        </mxCell>
        <mxCell id="ghwq6gVGDbaOMy1OxIAP-2" value="" style="line;strokeWidth=1;fillColor=none;align=left;verticalAlign=middle;spacingTop=-1;spacingLeft=3;spacingRight=3;rotatable=0;labelPosition=right;points=[];portConstraint=eastwest;" parent="ghwq6gVGDbaOMy1OxIAP-0" vertex="1">
          <mxGeometry y="78" width="160" height="8" as="geometry" />
        </mxCell>
        <mxCell id="ghwq6gVGDbaOMy1OxIAP-3" value="sendSongRequest(CardID)" style="text;strokeColor=none;fillColor=none;align=left;verticalAlign=top;spacingLeft=4;spacingRight=4;overflow=hidden;rotatable=0;points=[[0,0.5],[1,0.5]];portConstraint=eastwest;" parent="ghwq6gVGDbaOMy1OxIAP-0" vertex="1">
          <mxGeometry y="86" width="160" height="26" as="geometry" />
        </mxCell>
        <mxCell id="ghwq6gVGDbaOMy1OxIAP-12" value="Arduino Controller" style="swimlane;fontStyle=1;align=center;verticalAlign=top;childLayout=stackLayout;horizontal=1;startSize=26;horizontalStack=0;resizeParent=1;resizeParentMax=0;resizeLast=0;collapsible=1;marginBottom=0;" parent="WIyWlLk6GJQsqaUBKTNV-1" vertex="1">
          <mxGeometry x="413.5" y="368.5" width="190" height="346" as="geometry" />
        </mxCell>
        <mxCell id="8XgDAi0aC2tZfyaki_x5-6" value="Display" style="text;strokeColor=none;fillColor=none;align=left;verticalAlign=top;spacingLeft=4;spacingRight=4;overflow=hidden;rotatable=0;points=[[0,0.5],[1,0.5]];portConstraint=eastwest;" vertex="1" parent="ghwq6gVGDbaOMy1OxIAP-12">
          <mxGeometry y="26" width="190" height="26" as="geometry" />
        </mxCell>
        <mxCell id="ghwq6gVGDbaOMy1OxIAP-13" value="Microphone" style="text;strokeColor=none;fillColor=none;align=left;verticalAlign=top;spacingLeft=4;spacingRight=4;overflow=hidden;rotatable=0;points=[[0,0.5],[1,0.5]];portConstraint=eastwest;" parent="ghwq6gVGDbaOMy1OxIAP-12" vertex="1">
          <mxGeometry y="52" width="190" height="26" as="geometry" />
        </mxCell>
        <mxCell id="ghwq6gVGDbaOMy1OxIAP-34" value="RgbLeds" style="text;strokeColor=none;fillColor=none;align=left;verticalAlign=top;spacingLeft=4;spacingRight=4;overflow=hidden;rotatable=0;points=[[0,0.5],[1,0.5]];portConstraint=eastwest;" parent="ghwq6gVGDbaOMy1OxIAP-12" vertex="1">
          <mxGeometry y="78" width="190" height="26" as="geometry" />
        </mxCell>
        <mxCell id="8XgDAi0aC2tZfyaki_x5-0" value="PushButton" style="text;strokeColor=none;fillColor=none;align=left;verticalAlign=top;spacingLeft=4;spacingRight=4;overflow=hidden;rotatable=0;points=[[0,0.5],[1,0.5]];portConstraint=eastwest;" vertex="1" parent="ghwq6gVGDbaOMy1OxIAP-12">
          <mxGeometry y="104" width="190" height="26" as="geometry" />
        </mxCell>
        <mxCell id="8XgDAi0aC2tZfyaki_x5-1" value="StepperMotor" style="text;strokeColor=none;fillColor=none;align=left;verticalAlign=top;spacingLeft=4;spacingRight=4;overflow=hidden;rotatable=0;points=[[0,0.5],[1,0.5]];portConstraint=eastwest;" vertex="1" parent="ghwq6gVGDbaOMy1OxIAP-12">
          <mxGeometry y="130" width="190" height="26" as="geometry" />
        </mxCell>
        <mxCell id="ghwq6gVGDbaOMy1OxIAP-14" value="" style="line;strokeWidth=1;fillColor=none;align=left;verticalAlign=middle;spacingTop=-1;spacingLeft=3;spacingRight=3;rotatable=0;labelPosition=right;points=[];portConstraint=eastwest;" parent="ghwq6gVGDbaOMy1OxIAP-12" vertex="1">
          <mxGeometry y="156" width="190" height="8" as="geometry" />
        </mxCell>
        <mxCell id="8XgDAi0aC2tZfyaki_x5-8" value="getDisplayInput(Pi, Text)" style="text;strokeColor=none;fillColor=none;align=left;verticalAlign=top;spacingLeft=4;spacingRight=4;overflow=hidden;rotatable=0;points=[[0,0.5],[1,0.5]];portConstraint=eastwest;" vertex="1" parent="ghwq6gVGDbaOMy1OxIAP-12">
          <mxGeometry y="164" width="190" height="26" as="geometry" />
        </mxCell>
        <mxCell id="8XgDAi0aC2tZfyaki_x5-7" value="updateDisplay(Display)" style="text;strokeColor=none;fillColor=none;align=left;verticalAlign=top;spacingLeft=4;spacingRight=4;overflow=hidden;rotatable=0;points=[[0,0.5],[1,0.5]];portConstraint=eastwest;" vertex="1" parent="ghwq6gVGDbaOMy1OxIAP-12">
          <mxGeometry y="190" width="190" height="26" as="geometry" />
        </mxCell>
        <mxCell id="ghwq6gVGDbaOMy1OxIAP-15" value="getSound(Microphone)" style="text;strokeColor=none;fillColor=none;align=left;verticalAlign=top;spacingLeft=4;spacingRight=4;overflow=hidden;rotatable=0;points=[[0,0.5],[1,0.5]];portConstraint=eastwest;" parent="ghwq6gVGDbaOMy1OxIAP-12" vertex="1">
          <mxGeometry y="216" width="190" height="26" as="geometry" />
        </mxCell>
        <mxCell id="8XgDAi0aC2tZfyaki_x5-4" value="setLed(RgbLeds)" style="text;strokeColor=none;fillColor=none;align=left;verticalAlign=top;spacingLeft=4;spacingRight=4;overflow=hidden;rotatable=0;points=[[0,0.5],[1,0.5]];portConstraint=eastwest;" vertex="1" parent="ghwq6gVGDbaOMy1OxIAP-12">
          <mxGeometry y="242" width="190" height="26" as="geometry" />
        </mxCell>
        <mxCell id="8XgDAi0aC2tZfyaki_x5-3" value="readButton(PushButton)" style="text;strokeColor=none;fillColor=none;align=left;verticalAlign=top;spacingLeft=4;spacingRight=4;overflow=hidden;rotatable=0;points=[[0,0.5],[1,0.5]];portConstraint=eastwest;" vertex="1" parent="ghwq6gVGDbaOMy1OxIAP-12">
          <mxGeometry y="268" width="190" height="26" as="geometry" />
        </mxCell>
        <mxCell id="ghwq6gVGDbaOMy1OxIAP-36" value="openDoor(StepperMotor)" style="text;strokeColor=none;fillColor=none;align=left;verticalAlign=top;spacingLeft=4;spacingRight=4;overflow=hidden;rotatable=0;points=[[0,0.5],[1,0.5]];portConstraint=eastwest;" parent="ghwq6gVGDbaOMy1OxIAP-12" vertex="1">
          <mxGeometry y="294" width="190" height="26" as="geometry" />
        </mxCell>
        <mxCell id="8XgDAi0aC2tZfyaki_x5-5" value="openDoor(StepperMotor)" style="text;strokeColor=none;fillColor=none;align=left;verticalAlign=top;spacingLeft=4;spacingRight=4;overflow=hidden;rotatable=0;points=[[0,0.5],[1,0.5]];portConstraint=eastwest;" vertex="1" parent="ghwq6gVGDbaOMy1OxIAP-12">
          <mxGeometry y="320" width="190" height="26" as="geometry" />
        </mxCell>
        <mxCell id="ghwq6gVGDbaOMy1OxIAP-20" value="NFC Reader" style="swimlane;fontStyle=1;align=center;verticalAlign=top;childLayout=stackLayout;horizontal=1;startSize=26;horizontalStack=0;resizeParent=1;resizeParentMax=0;resizeLast=0;collapsible=1;marginBottom=0;" parent="WIyWlLk6GJQsqaUBKTNV-1" vertex="1">
          <mxGeometry x="44" y="500" width="160" height="112" as="geometry" />
        </mxCell>
        <mxCell id="ghwq6gVGDbaOMy1OxIAP-37" value="CardID" style="text;strokeColor=none;fillColor=none;align=left;verticalAlign=top;spacingLeft=4;spacingRight=4;overflow=hidden;rotatable=0;points=[[0,0.5],[1,0.5]];portConstraint=eastwest;" parent="ghwq6gVGDbaOMy1OxIAP-20" vertex="1">
          <mxGeometry y="26" width="160" height="26" as="geometry" />
        </mxCell>
        <mxCell id="ghwq6gVGDbaOMy1OxIAP-22" value="" style="line;strokeWidth=1;fillColor=none;align=left;verticalAlign=middle;spacingTop=-1;spacingLeft=3;spacingRight=3;rotatable=0;labelPosition=right;points=[];portConstraint=eastwest;" parent="ghwq6gVGDbaOMy1OxIAP-20" vertex="1">
          <mxGeometry y="52" width="160" height="8" as="geometry" />
        </mxCell>
        <mxCell id="ghwq6gVGDbaOMy1OxIAP-23" value="getCardData(CardID)" style="text;strokeColor=none;fillColor=none;align=left;verticalAlign=top;spacingLeft=4;spacingRight=4;overflow=hidden;rotatable=0;points=[[0,0.5],[1,0.5]];portConstraint=eastwest;" parent="ghwq6gVGDbaOMy1OxIAP-20" vertex="1">
          <mxGeometry y="60" width="160" height="26" as="geometry" />
        </mxCell>
        <mxCell id="ghwq6gVGDbaOMy1OxIAP-35" value="sendCardData(CardID)" style="text;strokeColor=none;fillColor=none;align=left;verticalAlign=top;spacingLeft=4;spacingRight=4;overflow=hidden;rotatable=0;points=[[0,0.5],[1,0.5]];portConstraint=eastwest;" parent="ghwq6gVGDbaOMy1OxIAP-20" vertex="1">
          <mxGeometry y="86" width="160" height="26" as="geometry" />
        </mxCell>
        <mxCell id="ghwq6gVGDbaOMy1OxIAP-24" value="Spotify API" style="swimlane;fontStyle=1;align=center;verticalAlign=top;childLayout=stackLayout;horizontal=1;startSize=26;horizontalStack=0;resizeParent=1;resizeParentMax=0;resizeLast=0;collapsible=1;marginBottom=0;" parent="WIyWlLk6GJQsqaUBKTNV-1" vertex="1">
          <mxGeometry x="650" y="330" width="160" height="86" as="geometry" />
        </mxCell>
        <mxCell id="ghwq6gVGDbaOMy1OxIAP-25" value="Song" style="text;strokeColor=none;fillColor=none;align=left;verticalAlign=top;spacingLeft=4;spacingRight=4;overflow=hidden;rotatable=0;points=[[0,0.5],[1,0.5]];portConstraint=eastwest;" parent="ghwq6gVGDbaOMy1OxIAP-24" vertex="1">
          <mxGeometry y="26" width="160" height="26" as="geometry" />
        </mxCell>
        <mxCell id="ghwq6gVGDbaOMy1OxIAP-26" value="" style="line;strokeWidth=1;fillColor=none;align=left;verticalAlign=middle;spacingTop=-1;spacingLeft=3;spacingRight=3;rotatable=0;labelPosition=right;points=[];portConstraint=eastwest;" parent="ghwq6gVGDbaOMy1OxIAP-24" vertex="1">
          <mxGeometry y="52" width="160" height="8" as="geometry" />
        </mxCell>
        <mxCell id="ghwq6gVGDbaOMy1OxIAP-27" value="getSong(Song)" style="text;strokeColor=none;fillColor=none;align=left;verticalAlign=top;spacingLeft=4;spacingRight=4;overflow=hidden;rotatable=0;points=[[0,0.5],[1,0.5]];portConstraint=eastwest;" parent="ghwq6gVGDbaOMy1OxIAP-24" vertex="1">
          <mxGeometry y="60" width="160" height="26" as="geometry" />
        </mxCell>
        <mxCell id="ghwq6gVGDbaOMy1OxIAP-32" value="«interface»&lt;br&gt;&lt;b&gt;Javascript to Play Music&lt;/b&gt;" style="html=1;" parent="WIyWlLk6GJQsqaUBKTNV-1" vertex="1">
          <mxGeometry x="632" y="470" width="195" height="50" as="geometry" />
        </mxCell>
        <mxCell id="ghwq6gVGDbaOMy1OxIAP-38" value="Mobile " style="swimlane;fontStyle=1;align=center;verticalAlign=top;childLayout=stackLayout;horizontal=1;startSize=26;horizontalStack=0;resizeParent=1;resizeParentMax=0;resizeLast=0;collapsible=1;marginBottom=0;" parent="WIyWlLk6GJQsqaUBKTNV-1" vertex="1">
          <mxGeometry x="234" y="368.5" width="160" height="164" as="geometry" />
        </mxCell>
        <mxCell id="ghwq6gVGDbaOMy1OxIAP-39" value="Current Song Playing" style="text;strokeColor=none;fillColor=none;align=left;verticalAlign=top;spacingLeft=4;spacingRight=4;overflow=hidden;rotatable=0;points=[[0,0.5],[1,0.5]];portConstraint=eastwest;" parent="ghwq6gVGDbaOMy1OxIAP-38" vertex="1">
          <mxGeometry y="26" width="160" height="26" as="geometry" />
        </mxCell>
        <mxCell id="ghwq6gVGDbaOMy1OxIAP-46" value="Next Track" style="text;strokeColor=none;fillColor=none;align=left;verticalAlign=top;spacingLeft=4;spacingRight=4;overflow=hidden;rotatable=0;points=[[0,0.5],[1,0.5]];portConstraint=eastwest;" parent="ghwq6gVGDbaOMy1OxIAP-38" vertex="1">
          <mxGeometry y="52" width="160" height="26" as="geometry" />
        </mxCell>
        <mxCell id="ghwq6gVGDbaOMy1OxIAP-57" value="Exit" style="text;strokeColor=none;fillColor=none;align=left;verticalAlign=top;spacingLeft=4;spacingRight=4;overflow=hidden;rotatable=0;points=[[0,0.5],[1,0.5]];portConstraint=eastwest;" parent="ghwq6gVGDbaOMy1OxIAP-38" vertex="1">
          <mxGeometry y="78" width="160" height="26" as="geometry" />
        </mxCell>
        <mxCell id="ghwq6gVGDbaOMy1OxIAP-40" value="" style="line;strokeWidth=1;fillColor=none;align=left;verticalAlign=middle;spacingTop=-1;spacingLeft=3;spacingRight=3;rotatable=0;labelPosition=right;points=[];portConstraint=eastwest;" parent="ghwq6gVGDbaOMy1OxIAP-38" vertex="1">
          <mxGeometry y="104" width="160" height="8" as="geometry" />
        </mxCell>
        <mxCell id="ghwq6gVGDbaOMy1OxIAP-41" value="getUserInput()" style="text;strokeColor=none;fillColor=none;align=left;verticalAlign=top;spacingLeft=4;spacingRight=4;overflow=hidden;rotatable=0;points=[[0,0.5],[1,0.5]];portConstraint=eastwest;" parent="ghwq6gVGDbaOMy1OxIAP-38" vertex="1">
          <mxGeometry y="112" width="160" height="26" as="geometry" />
        </mxCell>
        <mxCell id="ghwq6gVGDbaOMy1OxIAP-47" value="sendUserInput()" style="text;strokeColor=none;fillColor=none;align=left;verticalAlign=top;spacingLeft=4;spacingRight=4;overflow=hidden;rotatable=0;points=[[0,0.5],[1,0.5]];portConstraint=eastwest;" parent="ghwq6gVGDbaOMy1OxIAP-38" vertex="1">
          <mxGeometry y="138" width="160" height="26" as="geometry" />
        </mxCell>
        <mxCell id="ghwq6gVGDbaOMy1OxIAP-53" value="NFC Card" style="swimlane;fontStyle=1;align=center;verticalAlign=top;childLayout=stackLayout;horizontal=1;startSize=26;horizontalStack=0;resizeParent=1;resizeParentMax=0;resizeLast=0;collapsible=1;marginBottom=0;" parent="WIyWlLk6GJQsqaUBKTNV-1" vertex="1">
          <mxGeometry x="43" y="682" width="160" height="60" as="geometry" />
        </mxCell>
        <mxCell id="ghwq6gVGDbaOMy1OxIAP-54" value="CardID" style="text;strokeColor=none;fillColor=none;align=left;verticalAlign=top;spacingLeft=4;spacingRight=4;overflow=hidden;rotatable=0;points=[[0,0.5],[1,0.5]];portConstraint=eastwest;" parent="ghwq6gVGDbaOMy1OxIAP-53" vertex="1">
          <mxGeometry y="26" width="160" height="26" as="geometry" />
        </mxCell>
        <mxCell id="ghwq6gVGDbaOMy1OxIAP-55" value="" style="line;strokeWidth=1;fillColor=none;align=left;verticalAlign=middle;spacingTop=-1;spacingLeft=3;spacingRight=3;rotatable=0;labelPosition=right;points=[];portConstraint=eastwest;" parent="ghwq6gVGDbaOMy1OxIAP-53" vertex="1">
          <mxGeometry y="52" width="160" height="8" as="geometry" />
        </mxCell>
        <mxCell id="ghwq6gVGDbaOMy1OxIAP-58" value="" style="endArrow=none;html=1;edgeStyle=orthogonalEdgeStyle;rounded=0;entryX=0.5;entryY=0;entryDx=0;entryDy=0;" parent="WIyWlLk6GJQsqaUBKTNV-1" source="ghwq6gVGDbaOMy1OxIAP-0" edge="1">
          <mxGeometry relative="1" as="geometry">
            <mxPoint x="324" y="490" as="sourcePoint" />
            <mxPoint x="124" y="360" as="targetPoint" />
          </mxGeometry>
        </mxCell>
        <mxCell id="ghwq6gVGDbaOMy1OxIAP-59" value="parent" style="edgeLabel;resizable=0;html=1;align=left;verticalAlign=bottom;" parent="ghwq6gVGDbaOMy1OxIAP-58" connectable="0" vertex="1">
          <mxGeometry x="-1" relative="1" as="geometry">
            <mxPoint x="-40" y="34" as="offset" />
          </mxGeometry>
        </mxCell>
        <mxCell id="ghwq6gVGDbaOMy1OxIAP-60" value="child" style="edgeLabel;resizable=0;html=1;align=right;verticalAlign=bottom;" parent="ghwq6gVGDbaOMy1OxIAP-58" connectable="0" vertex="1">
          <mxGeometry x="1" relative="1" as="geometry" />
        </mxCell>
        <mxCell id="ghwq6gVGDbaOMy1OxIAP-61" value="" style="endArrow=none;html=1;edgeStyle=orthogonalEdgeStyle;rounded=0;" parent="WIyWlLk6GJQsqaUBKTNV-1" target="ghwq6gVGDbaOMy1OxIAP-38" edge="1">
          <mxGeometry relative="1" as="geometry">
            <mxPoint x="184" y="290" as="sourcePoint" />
            <mxPoint x="484" y="490" as="targetPoint" />
            <Array as="points">
              <mxPoint x="314" y="290" />
            </Array>
          </mxGeometry>
        </mxCell>
        <mxCell id="ghwq6gVGDbaOMy1OxIAP-63" value="child" style="edgeLabel;resizable=0;html=1;align=right;verticalAlign=bottom;" parent="ghwq6gVGDbaOMy1OxIAP-61" connectable="0" vertex="1">
          <mxGeometry x="1" relative="1" as="geometry" />
        </mxCell>
        <mxCell id="ghwq6gVGDbaOMy1OxIAP-64" value="" style="endArrow=none;html=1;edgeStyle=orthogonalEdgeStyle;rounded=0;" parent="WIyWlLk6GJQsqaUBKTNV-1" target="ghwq6gVGDbaOMy1OxIAP-20" edge="1">
          <mxGeometry relative="1" as="geometry">
            <mxPoint x="190" y="290" as="sourcePoint" />
            <mxPoint x="484" y="390" as="targetPoint" />
            <Array as="points">
              <mxPoint x="214" y="290" />
              <mxPoint x="214" y="470" />
              <mxPoint x="124" y="470" />
            </Array>
          </mxGeometry>
        </mxCell>
        <mxCell id="ghwq6gVGDbaOMy1OxIAP-66" value="child" style="edgeLabel;resizable=0;html=1;align=right;verticalAlign=bottom;" parent="ghwq6gVGDbaOMy1OxIAP-64" connectable="0" vertex="1">
          <mxGeometry x="1" relative="1" as="geometry" />
        </mxCell>
        <mxCell id="ghwq6gVGDbaOMy1OxIAP-67" value="1..n" style="endArrow=open;html=1;endSize=12;startArrow=diamondThin;startSize=14;startFill=1;edgeStyle=orthogonalEdgeStyle;align=left;verticalAlign=bottom;rounded=0;" parent="WIyWlLk6GJQsqaUBKTNV-1" source="ghwq6gVGDbaOMy1OxIAP-20" edge="1">
          <mxGeometry x="-0.7647" y="20" relative="1" as="geometry">
            <mxPoint x="324" y="490" as="sourcePoint" />
            <mxPoint x="124" y="680" as="targetPoint" />
            <mxPoint as="offset" />
          </mxGeometry>
        </mxCell>
        <mxCell id="ghwq6gVGDbaOMy1OxIAP-72" value="1" style="endArrow=open;html=1;endSize=12;startArrow=diamondThin;startSize=14;startFill=0;edgeStyle=orthogonalEdgeStyle;align=left;verticalAlign=bottom;rounded=0;" parent="WIyWlLk6GJQsqaUBKTNV-1" source="ghwq6gVGDbaOMy1OxIAP-24" target="ghwq6gVGDbaOMy1OxIAP-32" edge="1">
          <mxGeometry x="-1" y="3" relative="1" as="geometry">
            <mxPoint x="324" y="490" as="sourcePoint" />
            <mxPoint x="484" y="490" as="targetPoint" />
          </mxGeometry>
        </mxCell>
        <mxCell id="ghwq6gVGDbaOMy1OxIAP-74" value="" style="endArrow=block;endFill=1;html=1;edgeStyle=orthogonalEdgeStyle;align=left;verticalAlign=top;rounded=0;entryX=0.5;entryY=0;entryDx=0;entryDy=0;" parent="WIyWlLk6GJQsqaUBKTNV-1" target="ghwq6gVGDbaOMy1OxIAP-24" edge="1">
          <mxGeometry x="-1" relative="1" as="geometry">
            <mxPoint x="704" y="262" as="sourcePoint" />
            <mxPoint x="484" y="490" as="targetPoint" />
          </mxGeometry>
        </mxCell>
        <mxCell id="ghwq6gVGDbaOMy1OxIAP-75" value="1" style="edgeLabel;resizable=0;html=1;align=left;verticalAlign=bottom;" parent="ghwq6gVGDbaOMy1OxIAP-74" connectable="0" vertex="1">
          <mxGeometry x="-1" relative="1" as="geometry" />
        </mxCell>
        <mxCell id="ghwq6gVGDbaOMy1OxIAP-78" value="" style="endArrow=block;endFill=1;html=1;edgeStyle=orthogonalEdgeStyle;align=left;verticalAlign=top;rounded=0;" parent="WIyWlLk6GJQsqaUBKTNV-1" source="ghwq6gVGDbaOMy1OxIAP-0" edge="1">
          <mxGeometry x="-1" relative="1" as="geometry">
            <mxPoint x="324" y="490" as="sourcePoint" />
            <mxPoint x="354" y="119" as="targetPoint" />
          </mxGeometry>
        </mxCell>
        <mxCell id="ghwq6gVGDbaOMy1OxIAP-80" value="" style="endArrow=block;endFill=1;html=1;edgeStyle=orthogonalEdgeStyle;align=left;verticalAlign=top;rounded=0;exitX=0.994;exitY=0.094;exitDx=0;exitDy=0;exitPerimeter=0;entryX=0.463;entryY=0.009;entryDx=0;entryDy=0;entryPerimeter=0;" parent="WIyWlLk6GJQsqaUBKTNV-1" edge="1">
          <mxGeometry x="-1" relative="1" as="geometry">
            <mxPoint x="513.04" y="62.97199999999998" as="sourcePoint" />
            <mxPoint x="698.0799999999999" y="151.00800000000004" as="targetPoint" />
          </mxGeometry>
        </mxCell>
        <mxCell id="8XgDAi0aC2tZfyaki_x5-17" value="«interface»&lt;br&gt;&lt;b&gt;FireBase&lt;/b&gt;" style="html=1;" vertex="1" parent="WIyWlLk6GJQsqaUBKTNV-1">
          <mxGeometry x="400" y="90" width="110" height="50" as="geometry" />
        </mxCell>
        <mxCell id="8XgDAi0aC2tZfyaki_x5-18" value="getSongName(NfcId): FireBase" style="text;strokeColor=none;fillColor=none;align=left;verticalAlign=top;spacingLeft=4;spacingRight=4;overflow=hidden;rotatable=0;points=[[0,0.5],[1,0.5]];portConstraint=eastwest;" vertex="1" parent="WIyWlLk6GJQsqaUBKTNV-1">
          <mxGeometry x="350" y="260" width="180" height="26" as="geometry" />
        </mxCell>
        <mxCell id="8XgDAi0aC2tZfyaki_x5-19" value="getSongName(NfcId): FireBase" style="text;strokeColor=none;fillColor=none;align=left;verticalAlign=top;spacingLeft=4;spacingRight=4;overflow=hidden;rotatable=0;points=[[0,0.5],[1,0.5]];portConstraint=eastwest;" vertex="1" parent="WIyWlLk6GJQsqaUBKTNV-1">
          <mxGeometry x="350" y="300" width="180" height="26" as="geometry" />
        </mxCell>
      </root>
    </mxGraphModel>
  </diagram>
</mxfile>
